<?xml version="1.0"?>
<svg xmlns="http://www.w3.org/2000/svg" xmlns:xlink="http://www.w3.org/1999/xlink" xmlns:svgjs="http://svgjs.com/svgjs" version="1.1" width="512" height="512" x="0" y="0" viewBox="0 0 512 512" style="enable-background:new 0 0 512 512" xml:space="preserve" class=""><g><g xmlns="http://www.w3.org/2000/svg"><g><path d="m510.346 217.834c-5.484-21.688-23.917-38.437-51.902-47.162-26.705-8.326-59.271-8.396-91.699-.195-32.427 8.201-61.046 23.743-80.582 43.763-20.473 20.98-28.728 44.478-23.243 66.166 2.13 8.424 6.266 16.186 12.291 23.07 2.721 3.109 7.447 3.424 10.556.702s3.424-7.448.702-10.556c-4.456-5.091-7.498-10.771-9.044-16.885-4.16-16.45 2.745-34.934 19.445-52.048 17.636-18.072 43.754-32.174 73.542-39.707 29.787-7.533 59.47-7.542 83.577-.026 22.828 7.117 37.69 20.096 41.85 36.546s-2.745 34.934-19.445 52.047c-17.636 18.072-43.754 32.174-73.542 39.707-32.619 8.249-65.537 7.396-90.316-2.339-3.843-1.51-8.188.381-9.698 4.227-1.511 3.846.382 8.188 4.228 9.699 15.197 5.971 33.001 8.979 51.873 8.978 15.43 0 31.577-2.012 47.582-6.06 32.427-8.201 61.046-23.742 80.582-43.763 20.472-20.978 28.727-44.476 23.243-66.164z" fill="#031b88" data-original="#000000" style="" class=""/><path d="m323.755 253.767c3.871-1.444 5.839-5.753 4.395-9.624-1.445-3.871-5.753-5.838-9.624-4.395-5.887 2.196-10.522 7.818-11.808 14.323-1.452 7.346-1.868 25.081 25.546 31.109 5.836 1.283 12.658 1.906 20.086 1.906 16.928 0 37-3.235 55.698-9.267 14.455-4.663 48.665-17.944 54.131-40.51.94-3.878 1.037-7.446.3-10.909-1.267-5.939-5.004-10.722-10.253-13.124-5.119-2.342-10.94-2.101-15.969.661-3.622 1.989-4.945 6.537-2.955 10.159 1.988 3.622 6.538 4.944 10.158 2.955 1.095-.601 1.985-.425 2.541-.17.917.419 1.572 1.357 1.846 2.639.263 1.237.197 2.593-.208 4.266-2.481 10.241-19.824 21.935-44.183 29.793-24.562 7.923-51.244 10.667-67.978 6.987-16.069-3.533-14.676-10.583-14.081-13.594.321-1.631 1.455-2.869 2.358-3.205z" fill="#031b88" data-original="#000000" style="" class=""/><path d="m233.396 325.261c-21.108-19.349-50.969-32.921-84.084-38.216-33.115-5.296-65.721-1.712-91.809 10.091-27.135 12.275-44.146 31.965-47.899 55.442s6.269 47.488 28.223 67.613c21.108 19.349 50.969 32.921 84.084 38.216 9.987 1.597 19.925 2.386 29.654 2.386 22.532 0 43.934-4.234 62.155-12.478 27.134-12.275 44.145-31.965 47.899-55.442 3.753-23.475-6.27-47.487-28.223-67.612zm13.447 65.251c-2.934 18.349-16.888 34.036-39.291 44.172-23.451 10.608-53.027 13.786-83.279 8.95-30.255-4.837-57.364-17.08-76.337-34.471-18.125-16.616-26.492-35.872-23.558-54.221 2.933-18.349 16.887-34.037 39.291-44.172 16.295-7.372 35.543-11.155 55.927-11.155 8.95 0 18.121.73 27.352 2.206 30.255 4.838 57.365 17.08 76.337 34.471 18.125 16.615 26.492 35.871 23.558 54.22z" fill="#031b88" data-original="#000000" style="" class=""/><path d="m190.962 370.131c-4.119.335-7.185 3.945-6.851 8.063.335 4.119 3.968 7.192 8.063 6.85.727-.056 1.143.228 1.364.479.396.452.513 1.167.331 2.018-.204.953-.693 1.904-1.537 2.995-5.501 7.102-23.35 10.126-45.469 7.701-22.463-2.462-44.741-9.804-56.756-18.705-10.95-8.113-7.642-12.784-6.229-14.777.663-.937 1.717-1.395 2.27-1.355 4.088.264 7.681-2.86 7.947-6.984.266-4.123-2.861-7.681-6.984-7.947-5.906-.384-11.832 2.544-15.441 7.636-8.258 11.658-4.695 24.91 9.532 35.45 17.329 12.839 51.279 22.473 79.846 22.473 18.786 0 35.244-4.167 43.113-14.33 2.239-2.889 3.658-5.841 4.339-9.023 1.182-5.51-.173-10.985-3.716-15.022-3.461-3.941-8.493-5.951-13.822-5.522z" fill="#031b88" data-original="#000000" style="" class=""/><path d="m52.093 211.462c14.458 4.841 30.72 7.273 47.811 7.273 14.218 0 29.011-1.683 43.816-5.063 22.822-5.209 44.227-14.186 61.899-25.959 3.439-2.291 4.369-6.935 2.079-10.374-2.291-3.438-6.935-4.369-10.374-2.078-16.176 10.777-35.863 19.015-56.933 23.824-29.962 6.839-59.632 6.196-83.547-1.811-22.63-7.578-37.159-20.801-40.911-37.234-3.75-16.433 3.601-34.651 20.702-51.298 18.07-17.591 44.523-31.046 74.483-37.885 29.961-6.84 59.633-6.196 83.547 1.811 22.631 7.578 37.159 20.801 40.911 37.234 4.023 17.628-5.237 33.522-13.714 43.752-2.636 3.181-2.194 7.898.988 10.533 3.18 2.635 7.896 2.195 10.534-.987 15.018-18.124 20.977-38.235 16.778-56.628-4.956-21.715-22.978-38.794-50.746-48.092-26.482-8.868-59.021-9.653-91.627-2.211-32.603 7.442-61.579 22.27-81.592 41.752-20.981 20.426-29.807 43.634-24.85 65.349 4.956 21.714 22.979 38.794 50.746 48.092z" fill="#031b88" data-original="#000000" style="" class=""/><path d="m69.686 140.562c3.866-1.457 5.819-5.772 4.363-9.638-1.457-3.868-5.772-5.817-9.639-4.364-5.548 2.091-9.733 7.194-10.922 13.319-2.723 14.025 5.984 24.632 23.289 28.375 5.125 1.109 11.066 1.639 17.499 1.639 37.428 0 91.477-17.983 97.896-44.874.848-3.554.926-6.828.236-10.01-1.194-5.507-4.684-9.937-9.577-12.156-4.776-2.167-10.195-1.924-14.867.662-3.615 2.001-4.922 6.554-2.921 10.169 2.001 3.614 6.552 4.922 10.169 2.921.641-.355 1.138-.263 1.44-.126.547.248.951.852 1.134 1.7.208.953.154 2.021-.167 3.364-2.086 8.738-17.104 18.845-38.258 25.749-21.484 7.011-44.808 9.497-59.421 6.337-13.321-2.881-12.23-8.5-11.764-10.9.219-1.125 1.017-1.981 1.51-2.167z" fill="#031b88" data-original="#000000" style="" class=""/></g></g></g></svg>
